<?xml version="1.0" encoding="utf-8"?>
<!-- Uploaded to: SVG Repo, www.svgrepo.com, Generator: SVG Repo Mixer Tools -->
<svg width="800px" height="800px" viewBox="0 0 74.034 74.034" xmlns="http://www.w3.org/2000/svg">
  <g id="Uranus" transform="translate(-358.934 -426.342)">
    <g id="Group_74" data-name="Group 74">
      <circle id="Ellipse_60" data-name="Ellipse 60" cx="37.017" cy="37.017" r="37.017" transform="translate(358.934 426.342)" fill="#bce1d6"/>
      <path id="Path_93" data-name="Path 93" d="M395.926,500.376A36.9,36.9,0,0,0,420.665,436.1a36.764,36.764,0,0,1,9.523,24.739c0,20.379-19.2,39.153-39.582,39.153" opacity="0.12" style="mix-blend-mode: darken;isolation: isolate"/>
      <path id="Path_94" data-name="Path 94" d="M395.832,426.5a36.9,36.9,0,0,0-24.74,64.273,36.762,36.762,0,0,1-9.523-24.739c0-20.378,19.2-39.153,39.583-39.153" fill="#f0f5f9" opacity="0.2"/>
    </g>
    <g id="Group_75" data-name="Group 75">
      <line id="Line_1" data-name="Line 1" x2="5.344" y2="5.344" transform="translate(383.04 469.519)" fill="none" stroke="#312449" stroke-linecap="round" stroke-miterlimit="10" stroke-width="1.377"/>
      <line id="Line_2" data-name="Line 2" x1="5.344" y2="5.344" transform="translate(383.04 469.519)" fill="none" stroke="#312449" stroke-linecap="round" stroke-miterlimit="10" stroke-width="1.377"/>
      <line id="Line_3" data-name="Line 3" x2="5.344" y2="5.344" transform="translate(403.516 469.519)" fill="none" stroke="#312449" stroke-linecap="round" stroke-miterlimit="10" stroke-width="1.377"/>
      <line id="Line_4" data-name="Line 4" x1="5.344" y2="5.344" transform="translate(403.516 469.519)" fill="none" stroke="#312449" stroke-linecap="round" stroke-miterlimit="10" stroke-width="1.377"/>
    </g>
    <circle id="Ellipse_61" data-name="Ellipse 61" cx="3.242" cy="3.242" r="3.242" transform="translate(392.708 483.14)" fill="#312449"/>
  </g>
</svg>